<svg width="200" height="70" viewBox="0 0 200 70" fill="none" xmlns="http://www.w3.org/2000/svg">
<path d="M2.7149 13.959H16.9477L26.7379 37.7713H27.2316L37.0218 13.959H51.2547V56H40.0658V31.695H39.7367L30.3578 55.6717H23.6116L14.2328 31.5308H13.9037V56H2.7149V13.959ZM56.8389 56V24.4692H68.1923V56H56.8389ZM62.5154 21.1848C60.9796 21.1848 59.6633 20.6784 58.5665 19.6657C57.4697 18.653 56.9208 17.435 56.9208 16.0117C56.9208 14.5885 57.4697 13.3705 58.5665 12.3578C59.6633 11.3451 60.9796 10.8387 62.5154 10.8387C64.0647 10.8387 65.381 11.3451 66.4642 12.3578C67.5615 13.3705 68.1099 14.5885 68.1099 16.0117C68.1099 17.435 67.5615 18.653 66.4642 19.6657C65.381 20.6784 64.0647 21.1848 62.5154 21.1848Z" fill="#FBB034"/>
<path d="M98.7403 13.959H110.176V40.8915C110.176 44.0939 109.408 46.8652 107.872 49.2055C106.35 51.5317 104.225 53.3314 101.496 54.6041C98.7679 55.8632 95.6004 56.4927 91.9941 56.4927C88.3606 56.4927 85.1792 55.8632 82.4507 54.6041C79.7222 53.3314 77.5968 51.5317 76.0746 49.2055C74.5665 46.8652 73.8122 44.0939 73.8122 40.8915V13.959H85.2479V39.9061C85.2479 41.2063 85.5357 42.3695 86.1117 43.3959C86.6878 44.4086 87.4828 45.2024 88.4977 45.7773C89.5258 46.3517 90.6914 46.6394 91.9941 46.6394C93.3104 46.6394 94.476 46.3517 95.4905 45.7773C96.5054 45.2024 97.3004 44.4086 97.8765 43.3959C98.4525 42.3695 98.7403 41.2063 98.7403 39.9061V13.959ZM131.818 56H115.611V13.959H131.654C135.986 13.959 139.73 14.8006 142.884 16.4839C146.051 18.1535 148.492 20.5621 150.206 23.7097C151.933 26.8436 152.797 30.6002 152.797 34.9795C152.797 39.3587 151.94 43.1222 150.226 46.27C148.512 49.4037 146.085 51.8122 142.945 53.4958C139.805 55.1654 136.096 56 131.818 56ZM127.047 46.3106H131.407C133.491 46.3106 135.266 45.9756 136.734 45.3049C138.215 44.6344 139.339 43.478 140.107 41.8358C140.889 40.1936 141.279 37.9081 141.279 34.9795C141.279 32.0508 140.881 29.7654 140.086 28.1232C139.305 26.481 138.153 25.3246 136.631 24.654C135.123 23.9834 133.271 23.6481 131.078 23.6481H127.047V46.3106ZM197.414 29.7244H185.814C185.731 28.7664 185.512 27.8974 185.155 27.1173C184.813 26.3373 184.333 25.6667 183.715 25.1056C183.112 24.5308 182.379 24.0929 181.515 23.7918C180.651 23.477 179.671 23.3197 178.574 23.3197C176.654 23.3197 175.029 23.785 173.699 24.7156C172.383 25.6462 171.382 26.9804 170.696 28.7185C170.024 30.4565 169.688 32.5435 169.688 34.9795C169.688 37.5523 170.031 39.7077 170.717 41.4457C171.416 43.1701 172.424 44.4702 173.74 45.346C175.057 46.2081 176.64 46.6394 178.491 46.6394C179.547 46.6394 180.493 46.5094 181.33 46.2492C182.166 45.9756 182.893 45.5854 183.51 45.0792C184.127 44.5728 184.628 43.9638 185.011 43.2522C185.409 42.5269 185.676 41.7126 185.814 40.8094L197.414 40.8915C197.276 42.6706 196.776 44.4839 195.912 46.3314C195.048 48.1654 193.821 49.8621 192.231 51.4225C190.654 52.9688 188.7 54.2139 186.369 55.1582C184.038 56.1025 181.33 56.5749 178.244 56.5749C174.378 56.5749 170.909 55.7467 167.837 54.091C164.78 52.435 162.359 49.999 160.577 46.783C158.808 43.567 157.924 39.6325 157.924 34.9795C157.924 30.2991 158.828 26.3578 160.638 23.1554C162.448 19.9394 164.889 17.5103 167.961 15.8681C171.032 14.2121 174.46 13.3842 178.244 13.3842C180.905 13.3842 183.352 13.7468 185.587 14.4721C187.822 15.1975 189.783 16.2581 191.47 17.654C193.156 19.0362 194.514 20.74 195.542 22.7654C196.57 24.7908 197.194 27.1105 197.414 29.7244Z" fill="#64B32E"/>
</svg>

