<svg width="139" height="120" viewBox="0 0 139 120" fill="none" xmlns="http://www.w3.org/2000/svg">
<g clip-path="url(#clip0_366_725)">
<path d="M2.78003 14.2657H17.3539L27.3788 38.6014H27.8843L37.9091 14.2657H52.4832V57.2308H41.0261V32.3916H40.6891L31.0855 56.8952H24.1776L14.5739 32.2238H14.237V57.2308H2.78003V14.2657ZM58.2012 57.2308V25.007H69.8267V57.2308H58.2012ZM64.0137 21.6504C62.4411 21.6504 61.0933 21.1329 59.9702 20.0979C58.8471 19.0629 58.285 17.8182 58.285 16.3636C58.285 14.9091 58.8471 13.6644 59.9702 12.6294C61.0933 11.5944 62.4411 11.0769 64.0137 11.0769C65.6002 11.0769 66.948 11.5944 68.0572 12.6294C69.1808 13.6644 69.7423 14.9091 69.7423 16.3636C69.7423 17.8182 69.1808 19.0629 68.0572 20.0979C66.948 21.1329 65.6002 21.6504 64.0137 21.6504Z" fill="#FBB034"/>
<path d="M28.3055 62.7272H40.0152V90.2515C40.0152 93.5243 39.2289 96.3568 37.6564 98.7485C36.0979 101.126 33.9216 102.965 31.1276 104.266C28.3336 105.552 25.0902 106.196 21.3976 106.196C17.6769 106.196 14.4195 105.552 11.6255 104.266C8.83144 102.965 6.65516 101.126 5.0967 98.7485C3.55225 96.3568 2.78003 93.5243 2.78003 90.2515V62.7272H14.4897V89.2449C14.4897 90.5732 14.7846 91.7622 15.3743 92.8112C15.9639 93.846 16.7783 94.6574 17.8173 95.2449C18.8703 95.832 20.0638 96.126 21.3976 96.126C22.7455 96.126 23.9389 95.832 24.9779 95.2449C26.0169 94.6574 26.8312 93.846 27.4209 92.8112C28.0106 91.7622 28.3055 90.5732 28.3055 89.2449V62.7272ZM62.1761 105.692H45.5804V62.7272H62.0079C66.4443 62.7272 70.2775 63.5875 73.5069 65.3077C76.7503 67.014 79.2495 69.4754 81.0046 72.6923C82.7736 75.8949 83.6581 79.7345 83.6581 84.21C83.6581 88.6855 82.7806 92.5315 81.0254 95.7485C79.2703 98.9511 76.785 101.412 73.5699 103.133C70.3549 104.839 66.5569 105.692 62.1761 105.692ZM57.2903 95.79H61.7549C63.8891 95.79 65.7072 95.4475 67.2098 94.7622C68.7263 94.0768 69.8772 92.8952 70.6635 91.2166C71.4641 89.5385 71.864 87.2026 71.864 84.21C71.864 81.2169 71.4567 78.8811 70.6426 77.2029C69.8424 75.5243 68.6628 74.3428 67.1046 73.6574C65.5598 72.972 63.6643 72.6295 61.4181 72.6295H57.2903V95.79ZM129.344 78.8391H117.466C117.381 77.8602 117.157 76.9722 116.792 76.1746C116.441 75.3775 115.949 74.6922 115.317 74.1189C114.7 73.5314 113.949 73.0837 113.064 72.7763C112.18 72.4546 111.175 72.2935 110.052 72.2935C108.086 72.2935 106.423 72.7694 105.061 73.7202C103.713 74.6714 102.688 76.0348 101.986 77.8112C101.298 79.5872 100.954 81.7205 100.954 84.21C100.954 86.8394 101.305 89.0418 102.007 90.8183C102.723 92.5805 103.755 93.9092 105.103 94.8042C106.451 95.6852 108.073 96.126 109.968 96.126C111.049 96.126 112.018 95.9931 112.875 95.7272C113.731 95.4475 114.475 95.0488 115.107 94.5314C115.738 94.014 116.251 93.3914 116.644 92.6645C117.051 91.9232 117.325 91.0911 117.466 90.168L129.344 90.2515C129.203 92.07 128.691 93.9231 127.806 95.8112C126.922 97.6855 125.665 99.4195 124.037 101.014C122.422 102.594 120.421 103.867 118.034 104.832C115.647 105.797 112.875 106.28 109.715 106.28C105.756 106.28 102.203 105.433 99.0584 103.741C95.9276 102.049 93.4493 99.5594 91.6242 96.2728C89.813 92.9862 88.9072 88.9652 88.9072 84.21C88.9072 79.4266 89.8339 75.3988 91.6872 72.126C93.5405 68.8394 96.0398 66.3568 99.1849 64.6782C102.33 62.9862 105.84 62.1397 109.715 62.1397C112.439 62.1397 114.945 62.5103 117.234 63.2515C119.522 63.9932 121.53 65.0769 123.257 66.5035C124.984 67.9163 126.374 69.6572 127.427 71.7272C128.48 73.7972 129.119 76.1677 129.344 78.8391Z" fill="#64B32E"/>
<mask id="mask0_366_725" style="mask-type:luminance" maskUnits="userSpaceOnUse" x="79" y="11" width="60" height="49">
<path d="M139 11.5385H79.6934V60H139V11.5385Z" fill="white"/>
</mask>
<g mask="url(#mask0_366_725)">
<path d="M109.347 14.5673C108.596 14.5673 107.855 14.6998 107.15 14.9554L81.1575 24.5436C80.2771 24.8748 79.6933 25.7267 79.6933 26.6827C79.6933 27.6387 80.2771 28.4905 81.1575 28.8218L86.5229 30.8C85.0031 33.242 84.1413 36.1289 84.1413 39.1672V41.8269C84.1413 44.515 83.1405 47.2883 82.0749 49.4746C81.4725 50.7051 80.7868 51.9166 79.9899 53.0335C79.6933 53.4406 79.6099 53.9709 79.7767 54.4532C79.9435 54.936 80.3327 55.296 80.8146 55.4188L86.7453 56.9331C87.1345 57.0374 87.5515 56.9617 87.8943 56.7438C88.2372 56.5265 88.4781 56.1665 88.5523 55.7598C89.3492 51.7085 88.9507 48.0738 88.3577 45.471C88.0611 44.127 87.6627 42.7545 87.1067 41.4956V39.1672C87.1067 36.3087 88.0519 33.6112 89.6921 31.4531C90.8875 29.986 92.435 28.8029 94.2513 28.074L108.8 22.2341C109.56 21.9312 110.422 22.3098 110.718 23.0859C111.015 23.8621 110.644 24.7423 109.884 25.0452L95.3355 30.8852C94.1864 31.349 93.1763 32.0589 92.3516 32.9297L107.141 38.3816C107.845 38.6372 108.587 38.7697 109.337 38.7697C110.088 38.7697 110.829 38.6372 111.534 38.3816L137.536 28.8218C138.416 28.5 139 27.6387 139 26.6827C139 25.7267 138.416 24.8748 137.536 24.5436L111.543 14.9554C110.839 14.6998 110.097 14.5673 109.347 14.5673ZM91.5547 50.1563C91.5547 53.4974 99.524 56.9714 109.347 56.9714C119.169 56.9714 127.139 53.4974 127.139 50.1563L125.721 36.3939L112.544 41.259C111.515 41.6376 110.431 41.8269 109.347 41.8269C108.262 41.8269 107.169 41.6376 106.15 41.259L92.9725 36.3939L91.5547 50.1563Z" fill="#FBB034"/>
</g>
</g>
<defs>
<clipPath id="clip0_366_725">
<rect width="139" height="120" fill="white"/>
</clipPath>
</defs>
</svg>
