<svg width="283" height="296" viewBox="0 0 283 296" fill="none" xmlns="http://www.w3.org/2000/svg">
<rect x="163" y="58" width="16" height="16" rx="4" fill="#527630" fill-opacity="0.5"/>
<rect x="74" y="113" width="16" height="16" rx="4" fill="#527630" fill-opacity="0.5"/>
<rect x="194" y="263" width="16" height="16" rx="4" fill="#527630" fill-opacity="0.5"/>
<rect x="7" y="144" width="16" height="16" rx="4" fill="#527630" fill-opacity="0.5"/>
<circle cx="66" cy="263" r="8" fill="#527630" fill-opacity="0.5"/>
<circle cx="271" cy="97" r="8" fill="#527630" fill-opacity="0.5"/>
<circle cx="82" cy="33" r="8" fill="#527630" fill-opacity="0.5"/>
<circle cx="214" cy="168" r="8" fill="#527630" fill-opacity="0.5"/>
<path d="M24 190H93.3818V259.382H24V190Z" fill="white" fill-opacity="0.01"/>
<path d="M54.3545 244.927C67.9256 244.927 78.9272 233.926 78.9272 220.355C78.9272 206.783 67.9256 195.782 54.3545 195.782C40.7834 195.782 29.7817 206.783 29.7817 220.355C29.7817 233.926 40.7834 244.927 54.3545 244.927Z" stroke="white" stroke-width="3" stroke-linejoin="round"/>
<path d="M62.5312 210.732C60.4386 208.64 57.5477 207.345 54.3545 207.345C51.1614 207.345 48.2705 208.64 46.1777 210.732" stroke="white" stroke-opacity="0.37" stroke-width="2" stroke-linecap="round" stroke-linejoin="round"/>
<path d="M75.0544 241.055L95.9999 262" stroke="white" stroke-width="8.19519" stroke-linecap="round" stroke-linejoin="round"/>
<path d="M239 115H275.618V151.618H239V115Z" fill="white" fill-opacity="0.01"/>
<g opacity="0.3">
<path d="M267.98 153.938C260.817 153.938 255.011 148.131 255.011 140.969C255.011 133.806 260.817 128 267.98 128C275.142 128 280.948 133.806 280.948 140.969C280.948 148.131 275.142 153.938 267.98 153.938Z" stroke="white" stroke-width="3" stroke-linejoin="round"/>
<path d="M263.664 135.891C264.769 134.786 266.294 134.103 267.98 134.103C269.665 134.103 271.191 134.786 272.295 135.891" stroke="white" stroke-opacity="0.37" stroke-width="2" stroke-linecap="round" stroke-linejoin="round"/>
<path d="M257.054 151.894L246 162.948" stroke="white" stroke-width="4" stroke-linecap="round" stroke-linejoin="round"/>
</g>
<path d="M224 72.1111C228.296 72.1111 231.778 68.629 231.778 64.3333C231.778 60.0377 228.296 56.5556 224 56.5556C219.704 56.5556 216.222 60.0377 216.222 64.3333C216.222 68.629 219.704 72.1111 224 72.1111Z" stroke="white" stroke-width="3" stroke-linecap="round" stroke-linejoin="round"/>
<path d="M259 64.3333C251.655 75.965 238.46 87.6667 224 87.6667C209.54 87.6667 196.344 75.965 189 64.3333C197.939 53.2821 208.412 41 224 41C239.588 41 250.061 53.2819 259 64.3333Z" stroke="white" stroke-width="3" stroke-linecap="round" stroke-linejoin="round"/>
<path d="M146.5 286.556C148.648 286.556 150.389 284.814 150.389 282.667C150.389 280.519 148.648 278.778 146.5 278.778C144.352 278.778 142.611 280.519 142.611 282.667C142.611 284.814 144.352 286.556 146.5 286.556Z" stroke="white" stroke-opacity="0.3" stroke-width="3" stroke-linecap="round" stroke-linejoin="round"/>
<path d="M164 282.667C160.328 288.483 153.73 294.333 146.5 294.333C139.27 294.333 132.672 288.483 129 282.667C133.469 277.141 138.706 271 146.5 271C154.294 271 159.531 277.141 164 282.667Z" stroke="white" stroke-opacity="0.3" stroke-width="3" stroke-linecap="round" stroke-linejoin="round"/>
<path d="M16 100.222C17.7183 100.222 19.1111 98.8542 19.1111 97.1667C19.1111 95.4791 17.7183 94.1111 16 94.1111C14.2818 94.1111 12.8889 95.4791 12.8889 97.1667C12.8889 98.8542 14.2818 100.222 16 100.222Z" stroke="white" stroke-opacity="0.3" stroke-width="3" stroke-linecap="round" stroke-linejoin="round"/>
<path d="M30 97.1667C27.0622 101.736 21.784 106.333 16 106.333C10.216 106.333 4.93776 101.736 2 97.1667C5.57552 92.8251 9.76476 88 16 88C22.2353 88 26.4246 92.825 30 97.1667Z" stroke="white" stroke-opacity="0.3" stroke-width="3" stroke-linecap="round" stroke-linejoin="round"/>
<g opacity="0.2">
<path d="M74 78H224.145V228.145H74V78Z" fill="white" fill-opacity="0.01"/>
<path d="M149.073 215.633C183.624 215.633 211.633 187.624 211.633 153.073C211.633 118.521 183.624 90.5121 149.073 90.5121C114.521 90.5121 86.5122 118.521 86.5122 153.073C86.5122 187.624 114.521 215.633 149.073 215.633Z" stroke="white" stroke-width="6.40985"/>
<path d="M86.5122 143.189C95.9427 138.736 102.918 138.116 107.437 141.328C114.216 146.147 115.066 165.785 130.484 156.399C145.903 147.014 123.882 143.189 128.662 129.593C133.443 115.997 149.099 126.559 150.655 111.666C151.692 101.737 139.816 97.9385 115.026 100.269" stroke="white" stroke-width="6.40985"/>
<path d="M186.609 103.024C168.735 118.629 162.492 128.052 167.881 131.293C175.964 136.155 179.394 129.31 189.258 131.293C199.122 133.277 196.986 146.647 191.798 146.647C186.609 146.647 159.739 143.225 161.093 158.906C162.446 174.588 178.608 176.909 178.608 185.67C178.608 191.511 175.032 200.45 167.881 212.487" stroke="white" stroke-width="6.40985" stroke-linecap="round"/>
<path d="M93.0955 180.995C95.9466 179.751 98.0899 178.839 99.5251 178.259C111.559 173.398 120.488 172.252 126.312 174.822C136.611 179.366 132.652 188.545 135.878 191.926C139.103 195.308 147.159 194.324 147.159 200.756C147.159 205.045 145.718 209.889 142.837 215.289" stroke="white" stroke-width="6.40985" stroke-linecap="round"/>
</g>
<path d="M70 72H220.145V222.145H70V72Z" fill="white" fill-opacity="0.01"/>
<path d="M145.073 209.633C179.624 209.633 207.633 181.624 207.633 147.073C207.633 112.521 179.624 84.5121 145.073 84.5121C110.521 84.5121 82.5122 112.521 82.5122 147.073C82.5122 181.624 110.521 209.633 145.073 209.633Z" stroke="white" stroke-width="6.40985"/>
<path d="M82.5122 137.189C91.9427 132.736 98.9176 132.116 103.437 135.328C110.216 140.147 111.066 159.785 126.484 150.399C141.903 141.014 119.882 137.189 124.662 123.593C129.443 109.997 145.099 120.559 146.655 105.666C147.692 95.7374 135.816 91.9385 111.026 94.2691" stroke="white" stroke-width="6.40985"/>
<path d="M182.609 97.0242C164.735 112.629 158.492 122.052 163.881 125.293C171.964 130.155 175.394 123.31 185.258 125.293C195.122 127.277 192.986 140.647 187.798 140.647C182.609 140.647 155.739 137.225 157.093 152.906C158.446 168.588 174.608 170.909 174.608 179.67C174.608 185.511 171.032 194.45 163.881 206.487" stroke="white" stroke-width="6.40985" stroke-linecap="round"/>
<path d="M89.0955 174.995C91.9466 173.751 94.0899 172.839 95.5251 172.259C107.559 167.398 116.488 166.252 122.312 168.822C132.611 173.366 128.652 182.545 131.878 185.926C135.103 189.308 143.159 188.324 143.159 194.756C143.159 199.045 141.718 203.889 138.837 209.289" stroke="white" stroke-width="6.40985" stroke-linecap="round"/>
<path d="M54 69H86V101H54V69Z" fill="white" fill-opacity="0.01"/>
<path d="M56.6666 73L57.2253 71.7894C56.8125 71.5988 56.331 71.6318 55.948 71.8769C55.565 72.1219 55.3333 72.5453 55.3333 73H56.6666ZM56.6666 93H55.3333C55.3333 93.5201 55.6356 93.9927 56.1078 94.2106L56.6666 93ZM65.3333 97L64.7745 98.2106C65.1874 98.4011 65.6689 98.3682 66.0519 98.1231C66.4349 97.8781 66.6666 97.4547 66.6666 97H65.3333ZM65.3333 77H66.6666C66.6666 76.4799 66.3642 76.0073 65.892 75.7894L65.3333 77ZM56.1078 94.2106L64.7745 98.2106L65.892 95.7894L57.2253 91.7894L56.1078 94.2106ZM65.892 75.7894L57.2253 71.7894L56.1078 74.2106L64.7745 78.2106L65.892 75.7894ZM63.9999 77V97H66.6666V77H63.9999ZM57.9999 93V73H55.3333V93H57.9999Z" fill="white"/>
<path d="M65.3333 97H64C64 97.4482 64.2252 97.8664 64.5993 98.1131C64.9735 98.3598 65.4466 98.402 65.8585 98.2255L65.3333 97ZM74.6667 93L75.1919 94.2255C75.6821 94.0154 76 93.5334 76 93H74.6667ZM74.6667 73H76C76 72.5518 75.7748 72.1336 75.4007 71.8869C75.0265 71.6401 74.5534 71.5979 74.1415 71.7745L74.6667 73ZM65.3333 77L64.8081 75.7744C64.3179 75.9846 64 76.4666 64 77H65.3333ZM65.8585 98.2255L75.1919 94.2255L74.1415 91.7744L64.8081 95.7744L65.8585 98.2255ZM74.1415 71.7745L64.8081 75.7744L65.8585 78.2255L75.1919 74.2255L74.1415 71.7745ZM76 93V73H73.3333V93H76ZM64 77V97H66.6667V77H64Z" fill="white"/>
<path d="M74.6666 93H73.3333C73.3333 93.52 73.6357 93.9926 74.1079 94.2106L74.6666 93ZM83.3333 97L82.7745 98.2106C83.1874 98.4011 83.6689 98.3682 84.0519 98.1231C84.4349 97.878 84.6666 97.4546 84.6666 97H83.3333ZM83.3333 77H84.6666C84.6666 76.4799 84.3642 76.0073 83.892 75.7894L83.3333 77ZM74.6666 73L75.2253 71.7894C74.8125 71.5988 74.331 71.6318 73.948 71.8769C73.565 72.1219 73.3333 72.5453 73.3333 73H74.6666ZM74.1079 94.2106L82.7745 98.2106L83.892 95.7894L75.2253 91.7894L74.1079 94.2106ZM83.892 75.7894L75.2253 71.7894L74.1079 74.2106L82.7745 78.2106L83.892 75.7894ZM81.9999 77V97H84.6666V77H81.9999ZM75.9999 93V73H73.3333V93H75.9999Z" fill="white"/>
<g opacity="0.3">
<path d="M40 31H61V52H40V31Z" fill="white" fill-opacity="0.01"/>
<path d="M41.75 33.625L42.1167 32.8305C41.8457 32.7055 41.5298 32.7271 41.2784 32.888C41.0271 33.0488 40.875 33.3266 40.875 33.625H41.75ZM41.75 46.75H40.875C40.875 47.0913 41.0734 47.4014 41.3833 47.5445L41.75 46.75ZM47.4375 49.375L47.0708 50.1695C47.3418 50.2945 47.6577 50.2729 47.9091 50.1121C48.1604 49.9512 48.3125 49.6734 48.3125 49.375H47.4375ZM47.4375 36.25H48.3125C48.3125 35.9087 48.1141 35.5986 47.8042 35.4555L47.4375 36.25ZM41.3833 47.5445L47.0708 50.1695L47.8042 48.5805L42.1167 45.9555L41.3833 47.5445ZM47.8042 35.4555L42.1167 32.8305L41.3833 34.4195L47.0708 37.0445L47.8042 35.4555ZM46.5625 36.25V49.375H48.3125V36.25H46.5625ZM42.625 46.75V33.625H40.875V46.75H42.625Z" fill="white"/>
<path d="M47.4375 49.375H46.5625C46.5625 49.6691 46.7103 49.9436 46.9558 50.1055C47.2014 50.2674 47.5118 50.2951 47.7822 50.1793L47.4375 49.375ZM53.5625 46.75L53.9072 47.5543C54.2289 47.4164 54.4375 47.1 54.4375 46.75H53.5625ZM53.5625 33.625H54.4375C54.4375 33.3309 54.2897 33.0564 54.0442 32.8945C53.7986 32.7326 53.4882 32.7049 53.2178 32.8208L53.5625 33.625ZM47.4375 36.25L47.0928 35.4457C46.7711 35.5836 46.5625 35.9 46.5625 36.25H47.4375ZM47.7822 50.1793L53.9072 47.5543L53.2178 45.9457L47.0928 48.5707L47.7822 50.1793ZM53.2178 32.8208L47.0928 35.4457L47.7822 37.0543L53.9072 34.4293L53.2178 32.8208ZM54.4375 46.75V33.625H52.6875V46.75H54.4375ZM46.5625 36.25V49.375H48.3125V36.25H46.5625Z" fill="white"/>
<path d="M53.5625 46.75H52.6875C52.6875 47.0913 52.8859 47.4014 53.1958 47.5445L53.5625 46.75ZM59.25 49.375L58.8833 50.1695C59.1543 50.2945 59.4702 50.2729 59.7216 50.1121C59.9729 49.9512 60.125 49.6734 60.125 49.375H59.25ZM59.25 36.25H60.125C60.125 35.9087 59.9266 35.5986 59.6167 35.4555L59.25 36.25ZM53.5625 33.625L53.9292 32.8305C53.6582 32.7055 53.3423 32.7271 53.0909 32.888C52.8396 33.0488 52.6875 33.3266 52.6875 33.625H53.5625ZM53.1958 47.5445L58.8833 50.1695L59.6167 48.5805L53.9292 45.9555L53.1958 47.5445ZM59.6167 35.4555L53.9292 32.8305L53.1958 34.4195L58.8833 37.0445L59.6167 35.4555ZM58.375 36.25V49.375H60.125V36.25H58.375ZM54.4375 46.75V33.625H52.6875V46.75H54.4375Z" fill="white"/>
</g>
<g opacity="0.3">
<path d="M157 228H184V255H157V228Z" fill="white" fill-opacity="0.01"/>
<path d="M159.25 231.375L159.721 230.354C159.373 230.193 158.967 230.221 158.644 230.427C158.321 230.634 158.125 230.991 158.125 231.375H159.25ZM159.25 248.25H158.125C158.125 248.689 158.38 249.088 158.779 249.271L159.25 248.25ZM166.562 251.625L166.091 252.646C166.439 252.807 166.846 252.779 167.169 252.573C167.492 252.366 167.688 252.009 167.688 251.625H166.562ZM166.562 234.75H167.688C167.688 234.311 167.432 233.912 167.034 233.729L166.562 234.75ZM158.779 249.271L166.091 252.646L167.034 250.604L159.721 247.229L158.779 249.271ZM167.034 233.729L159.721 230.354L158.779 232.396L166.091 235.771L167.034 233.729ZM165.438 234.75V251.625H167.688V234.75H165.438ZM160.375 248.25V231.375H158.125V248.25H160.375Z" fill="white"/>
<path d="M166.562 251.625H165.438C165.438 252.003 165.628 252.356 165.943 252.564C166.259 252.772 166.658 252.808 167.006 252.659L166.562 251.625ZM174.438 248.25L174.881 249.284C175.294 249.107 175.562 248.7 175.562 248.25H174.438ZM174.438 231.375H175.562C175.562 230.997 175.372 230.644 175.057 230.436C174.741 230.228 174.342 230.192 173.994 230.341L174.438 231.375ZM166.562 234.75L166.119 233.716C165.706 233.893 165.438 234.3 165.438 234.75H166.562ZM167.006 252.659L174.881 249.284L173.994 247.216L166.119 250.591L167.006 252.659ZM173.994 230.341L166.119 233.716L167.006 235.784L174.881 232.409L173.994 230.341ZM175.562 248.25V231.375H173.312V248.25H175.562ZM165.438 234.75V251.625H167.688V234.75H165.438Z" fill="white"/>
<path d="M174.438 248.25H173.312C173.312 248.689 173.568 249.088 173.966 249.271L174.438 248.25ZM181.75 251.625L181.279 252.646C181.627 252.807 182.033 252.779 182.356 252.573C182.679 252.366 182.875 252.009 182.875 251.625H181.75ZM181.75 234.75H182.875C182.875 234.311 182.62 233.912 182.221 233.729L181.75 234.75ZM174.438 231.375L174.909 230.354C174.561 230.193 174.154 230.221 173.831 230.427C173.508 230.634 173.312 230.991 173.312 231.375H174.438ZM173.966 249.271L181.279 252.646L182.221 250.604L174.909 247.229L173.966 249.271ZM182.221 233.729L174.909 230.354L173.966 232.396L181.279 235.771L182.221 233.729ZM180.625 234.75V251.625H182.875V234.75H180.625ZM175.562 248.25V231.375H173.312V248.25H175.562Z" fill="white"/>
</g>
<path d="M244 239.906L228.871 255.035C227.018 256.889 224.504 257.93 221.883 257.93C219.262 257.93 216.748 256.889 214.895 255.035C213.041 253.182 212 250.668 212 248.047C212 245.426 213.041 242.912 214.895 241.059L230.023 225.93C231.259 224.694 232.935 224 234.682 224C236.43 224 238.106 224.694 239.341 225.93C240.577 227.165 241.271 228.841 241.271 230.589C241.271 232.336 240.577 234.012 239.341 235.247L224.196 250.376C223.578 250.994 222.74 251.341 221.866 251.341C220.993 251.341 220.155 250.994 219.537 250.376C218.919 249.758 218.572 248.921 218.572 248.047C218.572 247.173 218.919 246.335 219.537 245.717L233.513 231.757" stroke="white" stroke-width="2" stroke-linecap="round" stroke-linejoin="round"/>
<path d="M232.91 109.405L224.915 117.4C223.936 118.38 222.608 118.93 221.223 118.93C219.837 118.93 218.509 118.38 217.53 117.4C216.55 116.421 216 115.092 216 113.707C216 112.322 216.55 110.994 217.53 110.014L225.524 102.02C226.177 101.367 227.063 101 227.986 101C228.91 101 229.795 101.367 230.448 102.02C231.101 102.673 231.468 103.558 231.468 104.482C231.468 105.405 231.101 106.291 230.448 106.944L222.445 114.938C222.118 115.265 221.676 115.448 221.214 115.448C220.752 115.448 220.309 115.265 219.983 114.938C219.656 114.612 219.473 114.169 219.473 113.707C219.473 113.246 219.656 112.803 219.983 112.476L227.369 105.099" stroke="white" stroke-opacity="0.3" stroke-linecap="round" stroke-linejoin="round"/>
<path d="M154.91 9.40549L146.915 17.4002C145.936 18.3796 144.608 18.9299 143.223 18.9299C141.837 18.9299 140.509 18.3796 139.53 17.4002C138.55 16.4208 138 15.0924 138 13.7073C138 12.3222 138.55 10.9939 139.53 10.0144L147.524 2.01976C148.177 1.36682 149.063 1 149.986 1C150.91 1 151.795 1.36682 152.448 2.01976C153.101 2.6727 153.468 3.55828 153.468 4.48167C153.468 5.40507 153.101 6.29065 152.448 6.94359L144.445 14.9383C144.118 15.2648 143.676 15.4481 143.214 15.4481C142.752 15.4481 142.309 15.2648 141.983 14.9383C141.656 14.6118 141.473 14.1691 141.473 13.7073C141.473 13.2456 141.656 12.8028 141.983 12.4764L149.369 5.09933" stroke="white" stroke-opacity="0.3" stroke-linecap="round" stroke-linejoin="round"/>
<path d="M259 199.7V192.66C259 192.295 259.295 192 259.66 192H266.456C266.613 192 266.766 192.056 266.885 192.159L270.365 195.141C270.484 195.244 270.637 195.3 270.794 195.3H280.34C280.705 195.3 281 195.595 281 195.96V199.7M259 199.7V208.94C259 209.305 259.295 209.6 259.66 209.6H280.34C280.705 209.6 281 209.305 281 208.94V199.7M259 199.7H281" stroke="white" stroke-width="2" stroke-linecap="round" stroke-linejoin="round"/>
<path d="M13 139.325V129.885C13 129.396 13.3962 129 13.885 129H22.9976C23.2089 129 23.4132 129.076 23.5736 129.213L28.239 133.212C28.3993 133.349 28.6036 133.425 28.815 133.425H41.615C42.1038 133.425 42.5 133.821 42.5 134.31V139.325M13 139.325V151.715C13 152.204 13.3962 152.6 13.885 152.6H41.615C42.1038 152.6 42.5 152.204 42.5 151.715V139.325M13 139.325H42.5" stroke="white" stroke-width="2" stroke-linecap="round" stroke-linejoin="round"/>
<path d="M196 17.7V10.66C196 10.2955 196.295 10 196.66 10H203.456C203.613 10 203.766 10.0564 203.885 10.1589L207.365 13.1411C207.484 13.2436 207.637 13.3 207.794 13.3H217.34C217.705 13.3 218 13.5955 218 13.96V17.7M196 17.7V26.94C196 27.3045 196.295 27.6 196.66 27.6H217.34C217.705 27.6 218 27.3045 218 26.94V17.7M196 17.7H218" stroke="white" stroke-opacity="0.3" stroke-width="2" stroke-linecap="round" stroke-linejoin="round"/>
<path d="M2 190.7V183.66C2 183.295 2.29549 183 2.66 183H9.45586C9.6134 183 9.76575 183.056 9.88537 183.159L13.3647 186.141C13.4842 186.244 13.6366 186.3 13.7942 186.3H23.34C23.7045 186.3 24 186.595 24 186.96V190.7M2 190.7V199.94C2 200.305 2.29549 200.6 2.66 200.6H23.34C23.7045 200.6 24 200.305 24 199.94V190.7M2 190.7H24" stroke="white" stroke-opacity="0.3" stroke-width="2" stroke-linecap="round" stroke-linejoin="round"/>
<path d="M125 33C115.059 33 107 41.0589 107 51C107 60.941 115.059 69 125 69C134.941 69 143 60.941 143 51C143 41.0589 134.941 33 125 33Z" stroke="white" stroke-width="2" stroke-linecap="round" stroke-linejoin="round"/>
<path d="M111.088 62.4222C111.088 62.4222 115.1 57.3 125 57.3C134.9 57.3 138.912 62.4222 138.912 62.4222" stroke="white" stroke-width="2" stroke-linecap="round" stroke-linejoin="round"/>
<path d="M125 51C127.983 51 130.4 48.5824 130.4 45.6C130.4 42.6177 127.983 40.2 125 40.2C122.018 40.2 119.6 42.6177 119.6 45.6C119.6 48.5824 122.018 51 125 51Z" stroke="white" stroke-width="2" stroke-linecap="round" stroke-linejoin="round"/>
<path d="M227.5 185C221.149 185 216 190.149 216 196.5C216 202.851 221.149 208 227.5 208C233.851 208 239 202.851 239 196.5C239 190.149 233.851 185 227.5 185Z" stroke="white" stroke-opacity="0.3" stroke-width="2" stroke-linecap="round" stroke-linejoin="round"/>
<path d="M218.612 203.798C218.612 203.798 221.175 200.525 227.5 200.525C233.825 200.525 236.388 203.798 236.388 203.798" stroke="white" stroke-opacity="0.3" stroke-width="2" stroke-linecap="round" stroke-linejoin="round"/>
<path d="M227.5 196.5C229.405 196.5 230.95 194.955 230.95 193.05C230.95 191.145 229.405 189.6 227.5 189.6C225.595 189.6 224.05 191.145 224.05 193.05C224.05 194.955 225.595 196.5 227.5 196.5Z" stroke="white" stroke-opacity="0.3" stroke-width="2" stroke-linecap="round" stroke-linejoin="round"/>
</svg>
