<svg width="283" height="296" viewBox="0 0 283 296" fill="none" xmlns="http://www.w3.org/2000/svg">
<rect x="163" y="58" width="16" height="16" rx="4" fill="white" fill-opacity="0.5"/>
<rect x="74" y="113" width="16" height="16" rx="4" fill="white" fill-opacity="0.5"/>
<rect x="194" y="263" width="16" height="16" rx="4" fill="white" fill-opacity="0.5"/>
<rect x="7" y="144" width="16" height="16" rx="4" fill="white" fill-opacity="0.5"/>
<circle cx="66" cy="263" r="8" fill="white" fill-opacity="0.5"/>
<circle cx="271" cy="97" r="8" fill="white" fill-opacity="0.5"/>
<circle cx="82" cy="33" r="8" fill="white" fill-opacity="0.5"/>
<path d="M24 197H93.3818V266.382H24V197Z" fill="white" fill-opacity="0.01"/>
<path d="M54.3546 251.927C67.9257 251.927 78.9273 240.926 78.9273 227.355C78.9273 213.783 67.9257 202.782 54.3546 202.782C40.7835 202.782 29.7819 213.783 29.7819 227.355C29.7819 240.926 40.7835 251.927 54.3546 251.927Z" stroke="white" stroke-width="3" stroke-linejoin="round"/>
<path d="M62.5313 217.732C60.4387 215.64 57.5478 214.345 54.3546 214.345C51.1615 214.345 48.2706 215.64 46.1779 217.732" stroke="#0095E9" stroke-opacity="0.37" stroke-width="2" stroke-linecap="round" stroke-linejoin="round"/>
<path d="M75.0546 248.055L96 269" stroke="white" stroke-width="8.19519" stroke-linecap="round" stroke-linejoin="round"/>
<path d="M239 115H275.618V151.618H239V115Z" fill="white" fill-opacity="0.01"/>
<g opacity="0.3">
<path d="M267.98 153.938C260.817 153.938 255.011 148.131 255.011 140.969C255.011 133.806 260.817 128 267.98 128C275.142 128 280.948 133.806 280.948 140.969C280.948 148.131 275.142 153.938 267.98 153.938Z" stroke="white" stroke-width="3" stroke-linejoin="round"/>
<path d="M263.664 135.891C264.768 134.786 266.294 134.103 267.98 134.103C269.665 134.103 271.191 134.786 272.295 135.891" stroke="#0095E9" stroke-opacity="0.37" stroke-width="2" stroke-linecap="round" stroke-linejoin="round"/>
<path d="M257.055 151.894L246 162.948" stroke="white" stroke-width="4" stroke-linecap="round" stroke-linejoin="round"/>
</g>
<path d="M224 72.1111C228.296 72.1111 231.778 68.629 231.778 64.3333C231.778 60.0377 228.296 56.5556 224 56.5556C219.704 56.5556 216.222 60.0377 216.222 64.3333C216.222 68.629 219.704 72.1111 224 72.1111Z" stroke="white" stroke-width="3" stroke-linecap="round" stroke-linejoin="round"/>
<path d="M259 64.3333C251.655 75.965 238.46 87.6667 224 87.6667C209.54 87.6667 196.344 75.965 189 64.3333C197.939 53.2821 208.412 41 224 41C239.588 41 250.061 53.2819 259 64.3333Z" stroke="white" stroke-width="3" stroke-linecap="round" stroke-linejoin="round"/>
<path d="M146.5 286.556C148.648 286.556 150.389 284.814 150.389 282.667C150.389 280.519 148.648 278.778 146.5 278.778C144.352 278.778 142.611 280.519 142.611 282.667C142.611 284.814 144.352 286.556 146.5 286.556Z" stroke="white" stroke-opacity="0.3" stroke-width="3" stroke-linecap="round" stroke-linejoin="round"/>
<path d="M164 282.667C160.328 288.483 153.73 294.333 146.5 294.333C139.27 294.333 132.672 288.483 129 282.667C133.469 277.141 138.706 271 146.5 271C154.294 271 159.531 277.141 164 282.667Z" stroke="white" stroke-opacity="0.3" stroke-width="3" stroke-linecap="round" stroke-linejoin="round"/>
<path d="M16 100.222C17.7183 100.222 19.1111 98.8542 19.1111 97.1667C19.1111 95.4791 17.7183 94.1111 16 94.1111C14.2818 94.1111 12.8889 95.4791 12.8889 97.1667C12.8889 98.8542 14.2818 100.222 16 100.222Z" stroke="white" stroke-opacity="0.3" stroke-width="3" stroke-linecap="round" stroke-linejoin="round"/>
<path d="M30 97.1667C27.0622 101.736 21.784 106.333 16 106.333C10.216 106.333 4.93776 101.736 2 97.1667C5.57552 92.8251 9.76476 88 16 88C22.2353 88 26.4246 92.825 30 97.1667Z" stroke="white" stroke-opacity="0.3" stroke-width="3" stroke-linecap="round" stroke-linejoin="round"/>
<path d="M50 65H82V97H50V65Z" fill="white" fill-opacity="0.01"/>
<path d="M52.6667 69L53.2255 67.7894C52.8126 67.5988 52.3311 67.6318 51.9481 67.8769C51.5651 68.1219 51.3334 68.5453 51.3334 69H52.6667ZM52.6667 89H51.3334C51.3334 89.5201 51.6358 89.9927 52.108 90.2106L52.6667 89ZM61.3334 93L60.7746 94.2106C61.1875 94.4011 61.669 94.3682 62.052 94.1231C62.435 93.8781 62.6667 93.4547 62.6667 93H61.3334ZM61.3334 73H62.6667C62.6667 72.4799 62.3643 72.0073 61.8921 71.7894L61.3334 73ZM52.108 90.2106L60.7746 94.2106L61.8921 91.7894L53.2255 87.7894L52.108 90.2106ZM61.8921 71.7894L53.2255 67.7894L52.108 70.2106L60.7746 74.2106L61.8921 71.7894ZM60 73V93H62.6667V73H60ZM54 89V69H51.3334V89H54Z" fill="white"/>
<path d="M61.3333 93H60C60 93.4482 60.2252 93.8664 60.5993 94.1131C60.9735 94.3598 61.4466 94.402 61.8585 94.2255L61.3333 93ZM70.6667 89L71.1919 90.2255C71.6821 90.0154 72 89.5334 72 89H70.6667ZM70.6667 69H72C72 68.5518 71.7748 68.1336 71.4007 67.8869C71.0265 67.6401 70.5534 67.5979 70.1415 67.7745L70.6667 69ZM61.3333 73L60.8081 71.7744C60.3179 71.9846 60 72.4666 60 73H61.3333ZM61.8585 94.2255L71.1919 90.2255L70.1415 87.7744L60.8081 91.7744L61.8585 94.2255ZM70.1415 67.7745L60.8081 71.7744L61.8585 74.2255L71.1919 70.2255L70.1415 67.7745ZM72 89V69H69.3333V89H72ZM60 73V93H62.6667V73H60Z" fill="white"/>
<path d="M70.6667 89H69.3334C69.3334 89.52 69.6358 89.9926 70.108 90.2106L70.6667 89ZM79.3334 93L78.7746 94.2106C79.1875 94.4011 79.669 94.3682 80.052 94.1231C80.435 93.878 80.6667 93.4546 80.6667 93H79.3334ZM79.3334 73H80.6667C80.6667 72.4799 80.3643 72.0073 79.8921 71.7894L79.3334 73ZM70.6667 69L71.2254 67.7894C70.8126 67.5988 70.3311 67.6318 69.9481 67.8769C69.5651 68.1219 69.3334 68.5453 69.3334 69H70.6667ZM70.108 90.2106L78.7746 94.2106L79.8921 91.7894L71.2254 87.7894L70.108 90.2106ZM79.8921 71.7894L71.2254 67.7894L70.108 70.2106L78.7746 74.2106L79.8921 71.7894ZM78 73V93H80.6667V73H78ZM72 89V69H69.3334V89H72Z" fill="white"/>
<g opacity="0.3">
<path d="M40 31H61V52H40V31Z" fill="white" fill-opacity="0.01"/>
<path d="M41.75 33.625L42.1167 32.8305C41.8457 32.7055 41.5298 32.7271 41.2784 32.888C41.0271 33.0488 40.875 33.3266 40.875 33.625H41.75ZM41.75 46.75H40.875C40.875 47.0913 41.0734 47.4014 41.3833 47.5445L41.75 46.75ZM47.4375 49.375L47.0708 50.1695C47.3418 50.2945 47.6577 50.2729 47.9091 50.1121C48.1604 49.9512 48.3125 49.6734 48.3125 49.375H47.4375ZM47.4375 36.25H48.3125C48.3125 35.9087 48.1141 35.5986 47.8042 35.4555L47.4375 36.25ZM41.3833 47.5445L47.0708 50.1695L47.8042 48.5805L42.1167 45.9555L41.3833 47.5445ZM47.8042 35.4555L42.1167 32.8305L41.3833 34.4195L47.0708 37.0445L47.8042 35.4555ZM46.5625 36.25V49.375H48.3125V36.25H46.5625ZM42.625 46.75V33.625H40.875V46.75H42.625Z" fill="white"/>
<path d="M47.4375 49.375H46.5625C46.5625 49.6691 46.7103 49.9436 46.9558 50.1055C47.2014 50.2674 47.5118 50.2951 47.7822 50.1793L47.4375 49.375ZM53.5625 46.75L53.9072 47.5543C54.2289 47.4164 54.4375 47.1 54.4375 46.75H53.5625ZM53.5625 33.625H54.4375C54.4375 33.3309 54.2897 33.0564 54.0442 32.8945C53.7986 32.7326 53.4882 32.7049 53.2178 32.8208L53.5625 33.625ZM47.4375 36.25L47.0928 35.4457C46.7711 35.5836 46.5625 35.9 46.5625 36.25H47.4375ZM47.7822 50.1793L53.9072 47.5543L53.2178 45.9457L47.0928 48.5707L47.7822 50.1793ZM53.2178 32.8208L47.0928 35.4457L47.7822 37.0543L53.9072 34.4293L53.2178 32.8208ZM54.4375 46.75V33.625H52.6875V46.75H54.4375ZM46.5625 36.25V49.375H48.3125V36.25H46.5625Z" fill="white"/>
<path d="M53.5625 46.75H52.6875C52.6875 47.0913 52.8859 47.4014 53.1958 47.5445L53.5625 46.75ZM59.25 49.375L58.8833 50.1695C59.1543 50.2945 59.4702 50.2729 59.7216 50.1121C59.9729 49.9512 60.125 49.6734 60.125 49.375H59.25ZM59.25 36.25H60.125C60.125 35.9087 59.9266 35.5986 59.6167 35.4555L59.25 36.25ZM53.5625 33.625L53.9292 32.8305C53.6582 32.7055 53.3423 32.7271 53.0909 32.888C52.8396 33.0488 52.6875 33.3266 52.6875 33.625H53.5625ZM53.1958 47.5445L58.8833 50.1695L59.6167 48.5805L53.9292 45.9555L53.1958 47.5445ZM59.6167 35.4555L53.9292 32.8305L53.1958 34.4195L58.8833 37.0445L59.6167 35.4555ZM58.375 36.25V49.375H60.125V36.25H58.375ZM54.4375 46.75V33.625H52.6875V46.75H54.4375Z" fill="white"/>
</g>
<g opacity="0.3">
<path d="M157 228H184V255H157V228Z" fill="white" fill-opacity="0.01"/>
<path d="M159.25 231.375L159.721 230.354C159.373 230.193 158.967 230.221 158.644 230.427C158.321 230.634 158.125 230.991 158.125 231.375H159.25ZM159.25 248.25H158.125C158.125 248.689 158.38 249.088 158.779 249.271L159.25 248.25ZM166.562 251.625L166.091 252.646C166.439 252.807 166.846 252.779 167.169 252.573C167.492 252.366 167.688 252.009 167.688 251.625H166.562ZM166.562 234.75H167.688C167.688 234.311 167.432 233.912 167.034 233.729L166.562 234.75ZM158.779 249.271L166.091 252.646L167.034 250.604L159.721 247.229L158.779 249.271ZM167.034 233.729L159.721 230.354L158.779 232.396L166.091 235.771L167.034 233.729ZM165.438 234.75V251.625H167.688V234.75H165.438ZM160.375 248.25V231.375H158.125V248.25H160.375Z" fill="white"/>
<path d="M166.562 251.625H165.438C165.438 252.003 165.628 252.356 165.943 252.564C166.259 252.772 166.658 252.808 167.006 252.659L166.562 251.625ZM174.438 248.25L174.881 249.284C175.294 249.107 175.562 248.7 175.562 248.25H174.438ZM174.438 231.375H175.562C175.562 230.997 175.372 230.644 175.057 230.436C174.741 230.228 174.342 230.192 173.994 230.341L174.438 231.375ZM166.562 234.75L166.119 233.716C165.706 233.893 165.438 234.3 165.438 234.75H166.562ZM167.006 252.659L174.881 249.284L173.994 247.216L166.119 250.591L167.006 252.659ZM173.994 230.341L166.119 233.716L167.006 235.784L174.881 232.409L173.994 230.341ZM175.562 248.25V231.375H173.312V248.25H175.562ZM165.438 234.75V251.625H167.688V234.75H165.438Z" fill="white"/>
<path d="M174.438 248.25H173.312C173.312 248.689 173.568 249.088 173.966 249.271L174.438 248.25ZM181.75 251.625L181.279 252.646C181.627 252.807 182.033 252.779 182.356 252.573C182.679 252.366 182.875 252.009 182.875 251.625H181.75ZM181.75 234.75H182.875C182.875 234.311 182.62 233.912 182.221 233.729L181.75 234.75ZM174.438 231.375L174.909 230.354C174.561 230.193 174.154 230.221 173.831 230.427C173.508 230.634 173.312 230.991 173.312 231.375H174.438ZM173.966 249.271L181.279 252.646L182.221 250.604L174.909 247.229L173.966 249.271ZM182.221 233.729L174.909 230.354L173.966 232.396L181.279 235.771L182.221 233.729ZM180.625 234.75V251.625H182.875V234.75H180.625ZM175.562 248.25V231.375H173.312V248.25H175.562Z" fill="white"/>
</g>
<path d="M244 239.906L228.871 255.035C227.018 256.889 224.504 257.93 221.883 257.93C219.262 257.93 216.748 256.889 214.895 255.035C213.041 253.182 212 250.668 212 248.047C212 245.426 213.041 242.912 214.895 241.059L230.023 225.93C231.259 224.694 232.935 224 234.682 224C236.43 224 238.106 224.694 239.341 225.93C240.577 227.165 241.271 228.841 241.271 230.589C241.271 232.336 240.577 234.012 239.341 235.247L224.196 250.376C223.578 250.994 222.74 251.341 221.866 251.341C220.993 251.341 220.155 250.994 219.537 250.376C218.919 249.758 218.572 248.921 218.572 248.047C218.572 247.173 218.919 246.335 219.537 245.717L233.513 231.757" stroke="white" stroke-width="2" stroke-linecap="round" stroke-linejoin="round"/>
<path d="M232.91 109.405L224.915 117.4C223.936 118.38 222.608 118.93 221.223 118.93C219.837 118.93 218.509 118.38 217.53 117.4C216.55 116.421 216 115.092 216 113.707C216 112.322 216.55 110.994 217.53 110.014L225.524 102.02C226.177 101.367 227.063 101 227.986 101C228.91 101 229.795 101.367 230.448 102.02C231.101 102.673 231.468 103.558 231.468 104.482C231.468 105.405 231.101 106.291 230.448 106.944L222.445 114.938C222.118 115.265 221.676 115.448 221.214 115.448C220.752 115.448 220.309 115.265 219.983 114.938C219.656 114.612 219.473 114.169 219.473 113.707C219.473 113.246 219.656 112.803 219.983 112.476L227.369 105.099" stroke="white" stroke-opacity="0.3" stroke-linecap="round" stroke-linejoin="round"/>
<path d="M154.91 9.40549L146.915 17.4002C145.936 18.3796 144.608 18.9299 143.223 18.9299C141.837 18.9299 140.509 18.3796 139.53 17.4002C138.55 16.4208 138 15.0924 138 13.7073C138 12.3222 138.55 10.9939 139.53 10.0144L147.524 2.01976C148.177 1.36682 149.063 1 149.986 1C150.91 1 151.795 1.36682 152.448 2.01976C153.101 2.6727 153.468 3.55828 153.468 4.48167C153.468 5.40507 153.101 6.29065 152.448 6.94359L144.445 14.9383C144.118 15.2648 143.676 15.4481 143.214 15.4481C142.752 15.4481 142.309 15.2648 141.983 14.9383C141.656 14.6118 141.473 14.1691 141.473 13.7073C141.473 13.2456 141.656 12.8028 141.983 12.4764L149.369 5.09933" stroke="white" stroke-opacity="0.3" stroke-linecap="round" stroke-linejoin="round"/>
<path d="M259 199.7V192.66C259 192.295 259.295 192 259.66 192H266.456C266.613 192 266.766 192.056 266.885 192.159L270.365 195.141C270.484 195.244 270.637 195.3 270.794 195.3H280.34C280.705 195.3 281 195.595 281 195.96V199.7M259 199.7V208.94C259 209.305 259.295 209.6 259.66 209.6H280.34C280.705 209.6 281 209.305 281 208.94V199.7M259 199.7H281" stroke="white" stroke-width="2" stroke-linecap="round" stroke-linejoin="round"/>
<path d="M13 139.325V129.885C13 129.396 13.3962 129 13.885 129H22.9976C23.2089 129 23.4132 129.076 23.5736 129.213L28.239 133.212C28.3993 133.349 28.6036 133.425 28.815 133.425H41.615C42.1038 133.425 42.5 133.821 42.5 134.31V139.325M13 139.325V151.715C13 152.204 13.3962 152.6 13.885 152.6H41.615C42.1038 152.6 42.5 152.204 42.5 151.715V139.325M13 139.325H42.5" stroke="white" stroke-width="2" stroke-linecap="round" stroke-linejoin="round"/>
<path d="M196 17.7V10.66C196 10.2955 196.295 10 196.66 10H203.456C203.613 10 203.766 10.0564 203.885 10.1589L207.365 13.1411C207.484 13.2436 207.637 13.3 207.794 13.3H217.34C217.705 13.3 218 13.5955 218 13.96V17.7M196 17.7V26.94C196 27.3045 196.295 27.6 196.66 27.6H217.34C217.705 27.6 218 27.3045 218 26.94V17.7M196 17.7H218" stroke="white" stroke-opacity="0.3" stroke-width="2" stroke-linecap="round" stroke-linejoin="round"/>
<path d="M2 190.7V183.66C2 183.295 2.29549 183 2.66 183H9.45586C9.6134 183 9.76575 183.056 9.88537 183.159L13.3647 186.141C13.4842 186.244 13.6366 186.3 13.7942 186.3H23.34C23.7045 186.3 24 186.595 24 186.96V190.7M2 190.7V199.94C2 200.305 2.29549 200.6 2.66 200.6H23.34C23.7045 200.6 24 200.305 24 199.94V190.7M2 190.7H24" stroke="white" stroke-opacity="0.3" stroke-width="2" stroke-linecap="round" stroke-linejoin="round"/>
<path d="M125 33C115.059 33 107 41.0589 107 51C107 60.941 115.059 69 125 69C134.941 69 143 60.941 143 51C143 41.0589 134.941 33 125 33Z" stroke="white" stroke-width="2" stroke-linecap="round" stroke-linejoin="round"/>
<path d="M111.088 62.4222C111.088 62.4222 115.1 57.3 125 57.3C134.9 57.3 138.912 62.4222 138.912 62.4222" stroke="white" stroke-width="2" stroke-linecap="round" stroke-linejoin="round"/>
<path d="M125 51C127.982 51 130.4 48.5824 130.4 45.6C130.4 42.6177 127.982 40.2 125 40.2C122.018 40.2 119.6 42.6177 119.6 45.6C119.6 48.5824 122.018 51 125 51Z" stroke="white" stroke-width="2" stroke-linecap="round" stroke-linejoin="round"/>
<path d="M227.5 185C221.149 185 216 190.149 216 196.5C216 202.851 221.149 208 227.5 208C233.851 208 239 202.851 239 196.5C239 190.149 233.851 185 227.5 185Z" stroke="white" stroke-opacity="0.3" stroke-width="2" stroke-linecap="round" stroke-linejoin="round"/>
<path d="M218.612 203.798C218.612 203.798 221.175 200.525 227.5 200.525C233.825 200.525 236.389 203.798 236.389 203.798" stroke="white" stroke-opacity="0.3" stroke-width="2" stroke-linecap="round" stroke-linejoin="round"/>
<path d="M227.5 196.5C229.405 196.5 230.95 194.955 230.95 193.05C230.95 191.145 229.405 189.6 227.5 189.6C225.595 189.6 224.05 191.145 224.05 193.05C224.05 194.955 225.595 196.5 227.5 196.5Z" stroke="white" stroke-opacity="0.3" stroke-width="2" stroke-linecap="round" stroke-linejoin="round"/>
<g clip-path="url(#clip0_360_138)">
<path d="M95.2013 104.187C95.2013 101.064 96.4417 98.0697 98.6497 95.8617C100.858 93.6537 103.852 92.4132 106.975 92.4132C110.098 92.4132 113.092 93.6537 115.3 95.8617C117.508 98.0697 118.749 101.064 118.749 104.187C118.749 107.31 117.508 110.304 115.3 112.512C113.092 114.72 110.098 115.961 106.975 115.961C103.852 115.961 100.858 114.72 98.6497 112.512C96.4417 110.304 95.2013 107.31 95.2013 104.187ZM105.013 178.754V210.151C105.013 214.492 101.505 218 97.1636 218C92.822 218 89.3144 214.492 89.3144 210.151V172.18C87.3276 174.437 84.1388 175.418 81.0973 174.486C76.9519 173.186 74.6462 168.795 75.9463 164.65L83.5256 140.342C86.5917 130.506 95.6918 123.81 105.994 123.81H107.956C118.258 123.81 127.358 130.506 130.424 140.342L138.004 164.65C139.304 168.795 136.998 173.186 132.853 174.486C129.811 175.443 126.622 174.437 124.636 172.18V210.151C124.636 214.492 121.128 218 116.786 218C112.445 218 108.937 214.492 108.937 210.151V178.754H105.013ZM154.07 92.4132C157.332 92.4132 159.957 95.0378 159.957 98.3001V212.113C159.957 215.375 157.332 218 154.07 218C150.808 218 148.183 215.375 148.183 212.113V98.3001C148.183 95.0378 150.808 92.4132 154.07 92.4132ZM189.391 104.187C189.391 101.064 190.632 98.0697 192.84 95.8617C195.048 93.6537 198.043 92.4132 201.165 92.4132C204.288 92.4132 207.282 93.6537 209.49 95.8617C211.698 98.0697 212.939 101.064 212.939 104.187C212.939 107.31 211.698 110.304 209.49 112.512C207.282 114.72 204.288 115.961 201.165 115.961C198.043 115.961 195.048 114.72 192.84 112.512C190.632 110.304 189.391 107.31 189.391 104.187ZM183.504 210.151V186.603H179.138C176.465 186.603 174.576 183.979 175.41 181.428L177.618 174.83C176.833 174.83 176.048 174.707 175.287 174.462C171.142 173.162 168.836 168.771 170.136 164.626L177.421 141.274C180.659 130.899 190.274 123.81 201.165 123.81C212.056 123.81 221.671 130.899 224.909 141.274L232.194 164.626C233.494 168.771 231.188 173.162 227.043 174.462C226.258 174.707 225.473 174.83 224.713 174.83L226.92 181.428C227.779 183.979 225.865 186.603 223.192 186.603H218.826V210.151C218.826 214.492 215.318 218 210.977 218C206.635 218 203.127 214.492 203.127 210.151V186.603H199.203V210.151C199.203 214.492 195.695 218 191.354 218C187.012 218 183.504 214.492 183.504 210.151Z" fill="#0095E9" fill-opacity="0.2"/>
</g>
<g clip-path="url(#clip1_360_138)">
<path d="M87.6228 98.7738C87.6228 95.6512 88.8632 92.6565 91.0712 90.4485C93.2792 88.2404 96.2739 87 99.3965 87C102.519 87 105.514 88.2404 107.722 90.4485C109.93 92.6565 111.17 95.6512 111.17 98.7738C111.17 101.896 109.93 104.891 107.722 107.099C105.514 109.307 102.519 110.548 99.3965 110.548C96.2739 110.548 93.2792 109.307 91.0712 107.099C88.8632 104.891 87.6228 101.896 87.6228 98.7738ZM97.4342 173.341V204.738C97.4342 209.079 93.9266 212.587 89.5851 212.587C85.2435 212.587 81.7359 209.079 81.7359 204.738V166.767C79.7491 169.024 76.5603 170.005 73.5188 169.073C69.3734 167.773 67.0677 163.382 68.3678 159.237L75.9471 134.929C79.0132 125.093 88.1133 118.397 98.4154 118.397H100.378C110.68 118.397 119.78 125.093 122.846 134.929L130.425 159.237C131.725 163.382 129.42 167.773 125.274 169.073C122.233 170.03 119.044 169.024 117.057 166.767V204.738C117.057 209.079 113.55 212.587 109.208 212.587C104.866 212.587 101.359 209.079 101.359 204.738V173.341H97.4342ZM146.492 87C149.754 87 152.378 89.6246 152.378 92.8869V206.7C152.378 209.962 149.754 212.587 146.492 212.587C143.229 212.587 140.605 209.962 140.605 206.7V92.8869C140.605 89.6246 143.229 87 146.492 87ZM181.813 98.7738C181.813 95.6512 183.053 92.6565 185.261 90.4485C187.469 88.2404 190.464 87 193.587 87C196.709 87 199.704 88.2404 201.912 90.4485C204.12 92.6565 205.36 95.6512 205.36 98.7738C205.36 101.896 204.12 104.891 201.912 107.099C199.704 109.307 196.709 110.548 193.587 110.548C190.464 110.548 187.469 109.307 185.261 107.099C183.053 104.891 181.813 101.896 181.813 98.7738ZM175.926 204.738V181.19H171.56C168.886 181.19 166.998 178.566 167.832 176.015L170.039 169.416C169.254 169.416 168.469 169.294 167.709 169.048C163.564 167.748 161.258 163.358 162.558 159.212L169.843 135.861C173.081 125.485 182.696 118.397 193.587 118.397C204.477 118.397 214.093 125.485 217.33 135.861L224.615 159.212C225.915 163.358 223.61 167.748 219.464 169.048C218.679 169.294 217.895 169.416 217.134 169.416L219.342 176.015C220.2 178.566 218.287 181.19 215.613 181.19H211.247V204.738C211.247 209.079 207.74 212.587 203.398 212.587C199.057 212.587 195.549 209.079 195.549 204.738V181.19H191.624V204.738C191.624 209.079 188.117 212.587 183.775 212.587C179.434 212.587 175.926 209.079 175.926 204.738Z" fill="white"/>
</g>
<defs>
<clipPath id="clip0_360_138">
<rect width="156.983" height="125.587" fill="white" transform="translate(75.5785 92.4132)"/>
</clipPath>
<clipPath id="clip1_360_138">
<rect width="156.983" height="125.587" fill="white" transform="translate(68 87)"/>
</clipPath>
</defs>
</svg>
