<svg xmlns="http://www.w3.org/2000/svg" width="77" height="88" viewBox="0 0 77 88" fill="none">
  <g clip-path="url(#clip0_361_235)">
    <path d="M38.5 44C44.3348 44 49.9305 41.6822 54.0564 37.5564C58.1822 33.4305 60.5 27.8348 60.5 22C60.5 16.1652 58.1822 10.5695 54.0564 6.44365C49.9305 2.31785 44.3348 0 38.5 0C32.6652 0 27.0695 2.31785 22.9436 6.44365C18.8179 10.5695 16.5 16.1652 16.5 22C16.5 27.8348 18.8179 33.4305 22.9436 37.5564C27.0695 41.6822 32.6652 44 38.5 44ZM30.6453 52.25C13.7156 52.25 0 65.9656 0 82.8953C0 85.7141 2.28594 88 5.10469 88H71.8953C74.7141 88 77 85.7141 77 82.8953C77 65.9656 63.2844 52.25 46.3547 52.25H30.6453Z" fill="#64B32E"/>
  </g>
  <defs>
    <clipPath id="clip0_361_235">
      <rect width="77" height="88" fill="white"/>
    </clipPath>
  </defs>
</svg>